<?xml version="1.0" encoding="UTF-8"?>
<svg width="24px" height="24px" viewBox="0 0 24 24" version="1.1" xmlns="http://www.w3.org/2000/svg" xmlns:xlink="http://www.w3.org/1999/xlink">
    <!-- Generator: Sketch 56.3 (81716) - https://sketch.com -->
    <title>Base / Icons / Detailed / Advanced Care Doc</title>
    <desc>Created with Sketch.</desc>
    <g id="Base-/-Icons-/-Detailed-/-Advanced-Care-Doc" stroke="none" stroke-width="1" fill="none" fill-rule="evenodd">
        <rect id="Footprint" x="0" y="0" width="24" height="24"></rect>
        <path d="M7.5,3.75 L4.636,3.75 C3.77073723,3.7144168 3.03945782,4.38490526 3,5.25 L3,21.75 C3.03945782,22.6150947 3.77073723,23.2855832 4.636,23.25 L19.364,23.25 C20.2292628,23.2855832 20.9605422,22.6150947 21,21.75 L21,5.25 C20.9605422,4.38490526 20.2292628,3.7144168 19.364,3.75 L16.5,3.75 M14.584,2.25 C14.0541738,1.32264608 13.0680361,0.750319749 12,0.750319749 C10.9319639,0.750319749 9.9458262,1.32264608 9.416,2.25 L8.25,2.25 C8.05108763,2.25 7.8603222,2.32901763 7.71966991,2.46966991 C7.57901763,2.6103222 7.5,2.80108763 7.5,3 L7.5,6 C7.5,6.41421356 7.83578644,6.75 8.25,6.75 L15.75,6.75 C16.1642136,6.75 16.5,6.41421356 16.5,6 L16.5,3 C16.5,2.58578644 16.1642136,2.25 15.75,2.25 L14.584,2.25 Z" id="Color-1" stroke="#203054" stroke-width="1.5" stroke-linecap="round" stroke-linejoin="round"></path>
        <path d="M16.5,13.5 C16.5,13.0857864 16.1642136,12.75 15.75,12.75 L13.5,12.75 L13.5,10.5 C13.5,10.0857864 13.1642136,9.75 12.75,9.75 L11.25,9.75 C10.8357864,9.75 10.5,10.0857864 10.5,10.5 L10.5,12.75 L8.25,12.75 C7.83578644,12.75 7.5,13.0857864 7.5,13.5 L7.5,15 C7.5,15.4142136 7.83578644,15.75 8.25,15.75 L10.5,15.75 L10.5,18 C10.5,18.4142136 10.8357864,18.75 11.25,18.75 L12.75,18.75 C13.1642136,18.75 13.5,18.4142136 13.5,18 L13.5,15.75 L15.75,15.75 C16.1642136,15.75 16.5,15.4142136 16.5,15 L16.5,13.5 Z" id="Color-2" stroke="#46B0CA" stroke-width="1.5" fill-opacity="0.1" fill="#46B0CA" stroke-linecap="round" stroke-linejoin="round"></path>
    </g>
</svg>