<?xml version="1.0" encoding="UTF-8"?>
<svg width="24px" height="24px" viewBox="0 0 24 24" version="1.1" xmlns="http://www.w3.org/2000/svg" xmlns:xlink="http://www.w3.org/1999/xlink">
    <!-- Generator: Sketch 56.3 (81716) - https://sketch.com -->
    <title>Base / Icons / Detailed / Allergy</title>
    <desc>Created with Sketch.</desc>
    <g id="Base-/-Icons-/-Detailed-/-Allergy" stroke="none" stroke-width="1" fill="none" fill-rule="evenodd">
        <rect id="Footprint" x="0" y="0" width="24" height="24"></rect>
        <path d="M20.554,22.378 L20.554,16.748 C23.0949014,14.3939999 23.9338357,10.7235329 22.6678853,7.49942589 C21.4019349,4.2753189 18.2897382,2.15626937 14.826,2.15999508 C8.412,2.15999508 7.026,7.442 4.74,13.374 C4.66036167,13.5813641 4.68784359,13.8146361 4.81349206,13.9978152 C4.93914053,14.1809942 5.14686946,14.290629 5.369,14.291 L7.076,14.291 L7.076,16.991 C7.076,18.4821688 8.28483118,19.691 9.776,19.691 L11.12,19.691 L11.12,22.391" id="Color-1" stroke="#203054" stroke-width="1.5" stroke-linecap="round" stroke-linejoin="round"></path>
        <path d="M4.446,21.7 L4.071,22.075 C4.27677188,22.075 4.44383407,21.9092641 4.44597911,21.7039998 L4.071,21.329 C4.27677188,21.329 4.44383407,21.4947359 4.44597911,21.7000002 Z M3.7,21.7 C3.7,21.4928932 3.86789322,21.325 4.075,21.325 L3.7,21.7 Z M4.071,22.079 C3.97154202,22.0779448 3.87657742,22.0374203 3.80700021,21.9663428 C3.737423,21.8952653 3.69893346,21.7994579 3.7,21.7 L4.071,22.079 Z M1.375,17.959 C1.58210678,17.959 1.75,18.1268932 1.75,18.334 L1.375,17.959 Z M1,18.334 C1,18.1268932 1.16789322,17.959 1.375,17.959 L1,18.334 Z M1.375,18.709 C1.16789322,18.709 1,18.5411068 1,18.334 L1.375,18.709 Z M1.75,18.334 C1.75,18.5411068 1.58210678,18.709 1.375,18.709 L1.75,18.334 Z M4.745,17.285 C4.95210678,17.285 5.12,17.4528932 5.12,17.66 L4.745,17.285 Z M4.37,17.66 C4.3697335,17.5604624 4.40915673,17.4649247 4.47954072,17.3945407 C4.54992472,17.3241567 4.64546236,17.2847335 4.745,17.285 L4.37,17.66 Z M4.745,18.035 C4.64546236,18.0352665 4.54992472,17.9958433 4.47954072,17.9254593 C4.40915673,17.8550753 4.3697335,17.7595376 4.37,17.66 L4.745,18.035 Z M5.12,17.66 C5.12,17.8671068 4.95210678,18.035 4.745,18.035 L5.12,17.66 Z" id="Color-2" stroke="#46B0CA" stroke-width="1.5" stroke-linecap="round" stroke-linejoin="round"></path>
    </g>
</svg>