<?xml version="1.0" encoding="UTF-8"?>
<svg width="24px" height="24px" viewBox="0 0 24 24" version="1.1" xmlns="http://www.w3.org/2000/svg" xmlns:xlink="http://www.w3.org/1999/xlink">
    <!-- Generator: Sketch 56.3 (81716) - https://sketch.com -->
    <title>Base / Icons / Detailed / Bill</title>
    <desc>Created with Sketch.</desc>
    <g id="Base-/-Icons-/-Detailed-/-Bill" stroke="none" stroke-width="1" fill="none" fill-rule="evenodd">
        <rect id="Footprint" x="0" y="0" width="24" height="24"></rect>
        <path d="M6.214,9.344 C6.65319384,9.9216912 7.34691055,10.2483877 8.072,10.219 C9.211,10.219 10.135,9.526 10.135,8.672 C10.135,7.818 9.211,7.126 8.072,7.126 C6.933,7.126 6.01,6.433 6.01,5.578 C6.01,4.723 6.934,4.031 8.072,4.031 C8.79708945,4.00161229 9.49080616,4.3283088 9.93,4.906 M8.072,10.219 L8.072,11.25 M8.072,3 L8.072,4.031 M23.25,20.986 L21.76,18.75 L21.76,13.5 C21.76,11.5 17.96,9.361 16.51,8.25 M18.44,14.794 L14.792,11.87 C14.2830696,11.3610696 13.4579304,11.3610696 12.949,11.87 C12.4400696,12.3789304 12.4400696,13.2040696 12.949,13.713 L16.482,17.7 L16.482,20.2 C16.482,21.381 18.17,23.245 18.17,23.245 M13.51,23.25 L2.134,23.25 C1.37499902,23.249448 0.76,22.6340012 0.76,21.875 L0.76,2.125 C0.76,1.36599882 1.37499902,0.750552001 2.134,0.75 L15.134,0.75 C15.8935535,0.75 16.509448,1.36544674 16.51,2.125 L16.51,13.247" id="Color-1" stroke="#203054" stroke-width="1.5" stroke-linecap="round" stroke-linejoin="round"></path>
        <path d="M10.51,14.25 L4.51,14.25 C4.09578644,14.25 3.76,14.5857864 3.76,15 L3.76,19.5 C3.76,19.9142136 4.09578644,20.25 4.51,20.25 L13.51,20.25 M3.76,17.25 L12.01,17.25 M8.26,14.25 L8.26,20.25" id="Color-2" stroke="#46B0CA" stroke-width="1.5" stroke-linecap="round" stroke-linejoin="round"></path>
    </g>
</svg>