<?xml version="1.0" encoding="UTF-8"?>
<svg width="24px" height="24px" viewBox="0 0 24 24" version="1.1" xmlns="http://www.w3.org/2000/svg" xmlns:xlink="http://www.w3.org/1999/xlink">
    <!-- Generator: Sketch 56.3 (81716) - https://sketch.com -->
    <title>Base / Icons / Detailed / Care Plan</title>
    <desc>Created with Sketch.</desc>
    <g id="Base-/-Icons-/-Detailed-/-Care-Plan" stroke="none" stroke-width="1" fill="none" fill-rule="evenodd">
        <rect id="Footprint" x="0" y="0" width="24" height="24"></rect>
        <path d="M3.75,6.75 L14.25,6.75 M3.75,11.25 L9.75,11.25 M3.75,15.75 L7.5,15.75 M8.25,20.25 L2.25,20.25 C1.42157288,20.25 0.75,19.5784271 0.75,18.75 L0.75,2.25 C0.75,1.42157288 1.42157288,0.75 2.25,0.75 L12.879,0.75 C13.2765472,0.75 13.6578016,0.907981752 13.939,1.189 L16.811,4.061 C17.0920182,4.34219839 17.25,4.72345279 17.25,5.121 L17.25,9.75" id="Color-1" stroke="#203054" stroke-width="1.5" stroke-linecap="round" stroke-linejoin="round"></path>
        <path d="M17.25,23.25 L12.136,17.915 C11.2151066,16.9943627 10.986707,15.5877114 11.569,14.423 L11.569,14.423 C12.004103,13.5531575 12.8307891,12.945471 13.7908377,12.7897553 C14.7508863,12.6340396 15.7272666,12.9492766 16.415,13.637 L17.25,14.472 L18.085,13.637 C18.7727334,12.9492766 19.7491137,12.6340396 20.7091623,12.7897553 C21.6692109,12.945471 22.495897,13.5531575 22.931,14.423 L22.931,14.423 C23.513293,15.5877114 23.2848934,16.9943627 22.364,17.915 L17.25,23.25 Z" id="Color-2" stroke="#46B0CA" stroke-width="1.5" fill-opacity="0.1" fill="#46B0CA" stroke-linecap="round" stroke-linejoin="round"></path>
    </g>
</svg>