<?xml version="1.0" encoding="UTF-8"?>
<svg width="24px" height="24px" viewBox="0 0 24 24" version="1.1" xmlns="http://www.w3.org/2000/svg" xmlns:xlink="http://www.w3.org/1999/xlink">
    <!-- Generator: Sketch 56.3 (81716) - https://sketch.com -->
    <title>Base / Icons / Detailed / Folder</title>
    <desc>Created with Sketch.</desc>
    <g id="Base-/-Icons-/-Detailed-/-Folder" stroke="none" stroke-width="1" fill="none" fill-rule="evenodd">
        <rect id="Footprint" x="0" y="0" width="24" height="24"></rect>
        <path d="M20.75,9.25 L20.75,6.75 C20.75,5.6454305 19.8545695,4.75 18.75,4.75 L8.75,4.75 L8.75,3.75 C8.75,2.6454305 7.8545695,1.75 6.75,1.75 L2.25,1.75 C1.1454305,1.75 0.25,2.6454305 0.25,3.75 L0.25,20.05 C0.265147168,21.1495728 1.07997712,22.0655355 2.16344669,22.2077896 C2.20066052,22.2126756 2.23780378,22.2165979 2.27484945,22.2195745 C2.32852126,22.2392569 2.38650604,22.25 2.447,22.25 L19.55,22.25 C20.4564387,22.2503118 21.2498603,21.6407451 21.4831614,20.7646666 L23.6856995,11.7547265 C23.843058,11.1642325 23.7148,10.5235866 23.3360764,10.0309847 C22.9573528,9.53838286 22.3711879,9.24978629 21.749828,9.25 L20.75,9.25 Z" id="Base" fill="#FFFFFF" fill-rule="nonzero"></path>
        <g id="Opacity" opacity="0.300000012" transform="translate(2.447000, 9.749995)" fill="#FC7370">
            <path d="M1.639,10.7380049 L3.99,1.08100489 C4.17650644,0.439896819 4.76431472,-0.000755573089 5.432,6.21724894e-15 L19.303,6.21724894e-15 C19.7690199,-0.000155415431 20.2086436,0.216292009 20.4926863,0.585743403 C20.776729,0.955194797 20.8729225,1.43567925 20.753,1.88600489 L18.553,10.8860049 C18.3780242,11.5430638 17.782958,12.0002388 17.103,12 L4.97379915e-14,12 C0.939848015,11.7004718 1.48618135,11.2798068 1.639,10.7380049 Z" id="Color-2"></path>
        </g>
        <path d="M20.25,9.75 L20.25,6.75 C20.25,5.92157288 19.5784271,5.25 18.75,5.25 L8.25,5.25 L8.25,3.75 C8.25,2.92157288 7.57842712,2.25 6.75,2.25 L2.25,2.25 C1.42157288,2.25 0.75,2.92157288 0.75,3.75 L0.75,20.05 C0.761667745,20.8943312 1.39130907,21.6021206 2.22853556,21.7120442 C3.06576205,21.8219678 3.85677202,21.3007029 4.086,20.488 L6.437,10.831 C6.62350644,10.1898919 7.21131472,9.74923954 7.879,9.75 L21.75,9.75 C22.2160199,9.7498397 22.6556436,9.96628712 22.9396863,10.3357385 C23.223729,10.7051899 23.3199225,11.1856744 23.2,11.636 L21,20.636 C20.8250242,21.2930589 20.229958,21.7502339 19.55,21.75 L2.447,21.75" id="Color-1" stroke="#203054" stroke-width="1.5" stroke-linecap="round" stroke-linejoin="round"></path>
    </g>
</svg>