<?xml version="1.0" encoding="UTF-8"?>
<svg width="24px" height="24px" viewBox="0 0 24 24" version="1.1" xmlns="http://www.w3.org/2000/svg" xmlns:xlink="http://www.w3.org/1999/xlink">
    <!-- Generator: Sketch 56.3 (81716) - https://sketch.com -->
    <title>Base / Icons / Detailed / Hospitalization</title>
    <desc>Created with Sketch.</desc>
    <g id="Base-/-Icons-/-Detailed-/-Hospitalization" stroke="none" stroke-width="1" fill="none" fill-rule="evenodd">
        <rect id="Footprint" x="0" y="0" width="24" height="24"></rect>
        <path d="M16.5,7.5 C16.5,6.25735931 15.4926407,5.25 14.25,5.25 C13.0073593,5.25 12,6.25735931 12,7.5 L12,8.25 L16.5,8.25 L16.5,7.5 Z M15.75,12 L15.75,16.5 M13.5,14.25 L18,14.25 M14.25,2.25 L14.25,0.75 M18,3.75 L18.75,2.25 M10.5,3.75 L9.75,2.25" id="Color-2" stroke="#46B0CA" stroke-width="1.5" fill-opacity="0.1" fill="#46B0CA" stroke-linecap="round" stroke-linejoin="round"></path>
        <path d="M8.25,18.75 L8.25,9.75 C8.25,8.92157288 8.92157288,8.25 9.75,8.25 L21.75,8.25 C22.5784271,8.25 23.25,8.92157288 23.25,9.75 L23.25,20.25 C23.25,21.0784271 22.5784271,21.75 21.75,21.75 L20.872,21.75 M8.25,18.878 L8.25,9.75 L4.921,9.75 C4.23283544,9.75 3.6329946,10.2184049 3.466,10.886 L3,13.5 L1.418,14.555 C1.00158815,14.8325821 0.751037974,15.2995506 0.75,15.8 L0.75,20.25 C0.75,21.0784271 1.42157288,21.75 2.25,21.75 L5.378,21.75 M7.5,23.25 C8.74264069,23.25 9.75,22.2426407 9.75,21 C9.75,19.7573593 8.74264069,18.75 7.5,18.75 C6.25735931,18.75 5.25,19.7573593 5.25,21 C5.25,22.2426407 6.25735931,23.25 7.5,23.25 Z M18.75,23.25 C19.9926407,23.25 21,22.2426407 21,21 C21,19.7573593 19.9926407,18.75 18.75,18.75 C17.5073593,18.75 16.5,19.7573593 16.5,21 C16.5,22.2426407 17.5073593,23.25 18.75,23.25 Z M9.622,21.75 L16.628,21.75" id="Color-1" stroke="#203054" stroke-width="1.5" stroke-linecap="round" stroke-linejoin="round"></path>
    </g>
</svg>