<?xml version="1.0" encoding="UTF-8"?>
<svg width="24px" height="24px" viewBox="0 0 24 24" version="1.1" xmlns="http://www.w3.org/2000/svg" xmlns:xlink="http://www.w3.org/1999/xlink">
    <!-- Generator: Sketch 56.3 (81716) - https://sketch.com -->
    <title>Base / Icons / Detailed / Insurance</title>
    <desc>Created with Sketch.</desc>
    <g id="Base-/-Icons-/-Detailed-/-Insurance" stroke="none" stroke-width="1" fill="none" fill-rule="evenodd">
        <rect id="Footprint" x="0" y="0" width="24" height="24"></rect>
        <path d="M23.25,13.5 C23.25,7.28679656 18.2132034,2.25 12,2.25 C5.78679656,2.25 0.75,7.28679656 0.75,13.5 L1.561,12.824 C2.53262144,12.0143797 3.78917532,11.6298225 5.04749236,11.7569898 C6.3058094,11.8841571 7.46001339,12.512349 8.25,13.5 C9.24413196,12.5046286 10.5932084,11.9453304 12,11.9453304 C13.4067916,11.9453304 14.755868,12.5046286 15.75,13.5 C16.5399866,12.512349 17.6941906,11.8841571 18.9525076,11.7569898 C20.2108247,11.6298225 21.4673786,12.0143797 22.439,12.824 L23.25,13.5 Z M12,11.947 L12,21.747 C12,22.5754271 11.3284271,23.247 10.5,23.247 C9.67157288,23.247 9,22.5754271 9,21.747 M12,2.25 L12,0.75" id="Color-1" stroke="#203054" stroke-width="1.5" stroke-linecap="round" stroke-linejoin="round"></path>
        <path d="M22.68,16.6 C22.3214106,16.2236894 21.8243038,16.0107249 21.3045,16.0107249 C20.7846962,16.0107249 20.2875894,16.2236894 19.929,16.6 L18.7499979,17.814 L17.571,16.6 C17.2124106,16.2236894 16.7153038,16.0107249 16.1955,16.0107249 C15.6756962,16.0107249 15.1785894,16.2236894 14.82,16.6 C14.0599972,17.3960651 14.0599972,18.6489349 14.82,19.445 L18.331,23.076 C18.4402654,23.1905701 18.5916799,23.2554002 18.7499979,23.2554002 C18.9083201,23.2554002 19.0597346,23.1905701 19.169,23.076 L22.68,19.44 C23.4368258,18.6445971 23.4368258,17.3954029 22.68,16.6 Z" id="Color-2" stroke="#46B0CA" stroke-width="1.5" fill-opacity="0.1" fill="#46B0CA" stroke-linecap="round" stroke-linejoin="round"></path>
    </g>
</svg>