<?xml version="1.0" encoding="UTF-8"?>
<svg width="24px" height="24px" viewBox="0 0 24 24" version="1.1" xmlns="http://www.w3.org/2000/svg" xmlns:xlink="http://www.w3.org/1999/xlink">
    <!-- Generator: Sketch 56.3 (81716) - https://sketch.com -->
    <title>Base / Icons / Detailed / Location</title>
    <desc>Created with Sketch.</desc>
    <defs>
        <path d="M18.75,15.449 C18.9571068,15.449 19.125,15.6168932 19.125,15.824 L18.75,15.449 Z M18.375,15.824 C18.375,15.6168932 18.5428932,15.449 18.75,15.449 L18.375,15.824 Z M18.75,16.2 C18.5428932,16.2 18.375,16.0321068 18.375,15.825 L18.75,16.2 Z M19.125,15.824 C19.125,16.0311068 18.9571068,16.199 18.75,16.199 L19.125,15.824 Z M18.75,11.324 C21.2352814,11.324 23.25,13.3387186 23.25,15.824 C23.25,17.745 20.562,21.4 19.341,22.962 C19.198863,23.1439205 18.9808636,23.2502436 18.75,23.2502436 C18.5191364,23.2502436 18.301137,23.1439205 18.159,22.962 C16.938,21.401 14.25,17.745 14.25,15.824 C14.25,13.3387186 16.2647186,11.324 18.75,11.324 L18.75,11.324 Z" id="path-1"></path>
    </defs>
    <g id="Base-/-Icons-/-Detailed-/-Location" stroke="none" stroke-width="1" fill="none" fill-rule="evenodd">
        <rect id="Footprint" x="0" y="0" width="24" height="24"></rect>
        <path d="M23.2499902,9 L23.2499902,4.65 C23.2499902,4.03651796 22.8766179,3.48480633 22.307,3.257 L16.307,0.857 C15.9494341,0.713999252 15.5505659,0.713999252 15.193,0.857 L8.807,3.412 C8.44943409,3.55500075 8.05056591,3.55500075 7.693,3.412 L1.779,1.046 C1.54728216,0.953132619 1.2845458,0.981643701 1.07814233,1.12205423 C0.871738859,1.26246475 0.748725408,1.4963685 0.749990191,1.746 L0.749990191,16.119 C0.749990191,16.732482 1.12338214,17.2841937 1.693,17.512 L7.693,19.912 C8.05056591,20.0550007 8.44943409,20.0550007 8.807,19.912 L11.688,18.759 M8.25,3.519 L8.25,20.019 M15.75,0.75 L15.75,8.25" id="Color-1" stroke="#203054" stroke-width="1.5" stroke-linecap="round" stroke-linejoin="round"></path>
        <g id="Color-2" stroke-linecap="round" stroke-linejoin="round">
            <use fill="#FFFFFF" xlink:href="#path-1"></use>
            <use stroke="#46B0CA" stroke-width="1.5" fill-opacity="0.1" fill="#46B0CA" xlink:href="#path-1"></use>
        </g>
    </g>
</svg>