<?xml version="1.0" encoding="UTF-8"?>
<svg width="24px" height="24px" viewBox="0 0 24 24" version="1.1" xmlns="http://www.w3.org/2000/svg" xmlns:xlink="http://www.w3.org/1999/xlink">
    <!-- Generator: Sketch 56.3 (81716) - https://sketch.com -->
    <title>Base / Icons / Detailed / Other</title>
    <desc>Created with Sketch.</desc>
    <g id="Base-/-Icons-/-Detailed-/-Other" stroke="none" stroke-width="1" fill="none" fill-rule="evenodd">
        <rect id="Footprint" x="0" y="0" width="24" height="24"></rect>
        <path d="M6.375,10.1291667 C4.30393219,10.1291667 2.625,8.45023448 2.625,6.37916667 C2.625,4.30809885 4.30393219,2.62916667 6.375,2.62916667 C8.44606781,2.62916667 10.125,4.30809885 10.125,6.37916667 C10.125,8.45023448 8.44606781,10.1291667 6.375,10.1291667 Z M17.625,21.3791667 C15.5539322,21.3791667 13.875,19.7002345 13.875,17.6291667 C13.875,15.5580989 15.5539322,13.8791667 17.625,13.8791667 C19.6960678,13.8791667 21.375,15.5580989 21.375,17.6291667 C21.375,19.7002345 19.6960678,21.3791667 17.625,21.3791667 Z" id="Color-1" stroke="#203054" stroke-width="1.5" stroke-linecap="round" stroke-linejoin="round"></path>
        <path d="M6.375,21.3791667 C4.30393219,21.3791667 2.625,19.7002345 2.625,17.6291667 C2.625,15.5580989 4.30393219,13.8791667 6.375,13.8791667 C8.44606781,13.8791667 10.125,15.5580989 10.125,17.6291667 C10.125,19.7002345 8.44606781,21.3791667 6.375,21.3791667 Z M17.625,10.1291667 C15.5539322,10.1291667 13.875,8.45023448 13.875,6.37916667 C13.875,4.30809885 15.5539322,2.62916667 17.625,2.62916667 C19.6960678,2.62916667 21.375,4.30809885 21.375,6.37916667 C21.375,8.45023448 19.6960678,10.1291667 17.625,10.1291667 Z" id="Color-2" stroke="#46B0CA" stroke-width="1.5" fill-opacity="0.1" fill="#46B0CA" stroke-linecap="round" stroke-linejoin="round"></path>
    </g>
</svg>