<?xml version="1.0" encoding="UTF-8"?>
<svg width="24px" height="24px" viewBox="0 0 24 24" version="1.1" xmlns="http://www.w3.org/2000/svg" xmlns:xlink="http://www.w3.org/1999/xlink">
    <!-- Generator: Sketch 56.3 (81716) - https://sketch.com -->
    <title>Base / Icons / Detailed / Problem</title>
    <desc>Created with Sketch.</desc>
    <g id="Base-/-Icons-/-Detailed-/-Problem" stroke="none" stroke-width="1" fill="none" fill-rule="evenodd">
        <rect id="Footprint" x="0" y="0" width="24" height="24"></rect>
        <path d="M5.25,10.511 L10.5,10.511 M5.25,14.261 L7.5,14.261 M5.25,18.011 L7.5,18.011 M9.75,23.261 L2.25,23.261 C1.42157288,23.261 0.75,22.5894271 0.75,21.761 L0.75,6.011 C0.75,5.18257288 1.42157288,4.511 2.25,4.511 L6,4.511 C6,2.43993219 7.67893219,0.761 9.75,0.761 C11.8210678,0.761 13.5,2.43993219 13.5,4.511 L17.25,4.511 C18.0784271,4.511 18.75,5.18257288 18.75,6.011 L18.75,8.261 M9.75,3.761 C9.95710678,3.761 10.125,3.92889322 10.125,4.136 C10.125,4.34310678 9.95710678,4.511 9.75,4.511 C9.54289322,4.511 9.375,4.34310678 9.375,4.136 C9.375,3.92889322 9.54289322,3.761 9.75,3.761" id="Color-1" stroke="#203054" stroke-width="1.5" stroke-linecap="round" stroke-linejoin="round"></path>
        <path d="M17.25,23.261 L12.136,17.926 C11.2151066,17.0053627 10.986707,15.5987114 11.569,14.434 L11.569,14.434 C12.004103,13.5641575 12.8307891,12.956471 13.7908377,12.8007553 C14.7508863,12.6450396 15.7272666,12.9602766 16.415,13.648 L17.25,14.483 L18.085,13.648 C18.7727334,12.9602766 19.7491137,12.6450396 20.7091623,12.8007553 C21.6692109,12.956471 22.495897,13.5641575 22.931,14.434 L22.931,14.434 C23.513293,15.5987114 23.2848934,17.0053627 22.364,17.926 L17.25,23.261 Z" id="Color-2" stroke="#46B0CA" stroke-width="1.5" fill-opacity="0.1" fill="#46B0CA" stroke-linecap="round" stroke-linejoin="round"></path>
    </g>
</svg>