<?xml version="1.0" encoding="UTF-8"?>
<svg width="24px" height="24px" viewBox="0 0 24 24" version="1.1" xmlns="http://www.w3.org/2000/svg" xmlns:xlink="http://www.w3.org/1999/xlink">
    <!-- Generator: Sketch 56.3 (81716) - https://sketch.com -->
    <title>Base / Icons / Detailed / Relationship - Couple</title>
    <desc>Created with Sketch.</desc>
    <g id="Base-/-Icons-/-Detailed-/-Relationship---Couple" stroke="none" stroke-width="1" fill="none" fill-rule="evenodd">
        <rect id="Footprint" x="0" y="0" width="24" height="24"></rect>
        <path d="M5.25,17.25 C6.90685425,17.25 8.25,15.9068542 8.25,14.25 C8.25,12.5931458 6.90685425,11.25 5.25,11.25 C3.59314575,11.25 2.25,12.5931458 2.25,14.25 C2.25,15.9068542 3.59314575,17.25 5.25,17.25 Z M9.75,23.2500001 C9.75,20.7647187 7.73528135,18.7500001 5.25,18.7500001 C2.76471865,18.7500001 0.75,20.7647187 0.75,23.2500001 M18.75,17.25 C20.4068542,17.25 21.75,15.9068542 21.75,14.25 C21.75,12.5931458 20.4068542,11.25 18.75,11.25 C17.0931458,11.25 15.75,12.5931458 15.75,14.25 C15.75,15.9068542 17.0931458,17.25 18.75,17.25 Z M23.25,23.2500001 C23.25,20.7647187 21.2352813,18.7500001 18.75,18.7500001 C16.2647187,18.7500001 14.25,20.7647187 14.25,23.2500001" id="Color-1" stroke="#203054" stroke-width="1.5" stroke-linecap="round" stroke-linejoin="round"></path>
        <path d="M16.272,1.5 C15.8136001,1.01921525 15.1782925,0.747149456 14.514,0.747149456 C13.8497075,0.747149456 13.2143999,1.01921525 12.756,1.5 L11.25,3.06 L9.744,1.5 C9.28560006,1.01921525 8.65029247,0.747149456 7.986,0.747149456 C7.32170753,0.747149456 6.68639994,1.01921525 6.228,1.5 C5.25694876,2.51711223 5.25694876,4.11788777 6.228,5.135 L10.715,9.774 C10.8546172,9.92010354 11.0479129,10.0027515 11.25,10.0027515 C11.4520871,10.0027515 11.6453828,9.92010354 11.785,9.774 L16.272,5.135 C17.2430512,4.11788777 17.2430512,2.51711223 16.272,1.5 Z" id="Color-2" stroke="#46B0CA" stroke-width="1.5" fill-opacity="0.1" fill="#46B0CA" stroke-linecap="round" stroke-linejoin="round"></path>
    </g>
</svg>