<?xml version="1.0" encoding="UTF-8"?>
<svg width="24px" height="24px" viewBox="0 0 24 24" version="1.1" xmlns="http://www.w3.org/2000/svg" xmlns:xlink="http://www.w3.org/1999/xlink">
    <!-- Generator: Sketch 56.3 (81716) - https://sketch.com -->
    <title>Base / Icons / Detailed / Relationship - Other</title>
    <desc>Created with Sketch.</desc>
    <g id="Base-/-Icons-/-Detailed-/-Relationship---Other" stroke="none" stroke-width="1" fill="none" fill-rule="evenodd">
        <rect id="Footprint" x="0" y="0" width="24" height="24"></rect>
        <path d="M17.812,20.25 L18,21.75 L21,21.75 L21.75,15.75 L23.25,15.75 L23.25,13.5 C23.25,12.0796048 22.4474911,10.7811181 21.177051,10.145898 C19.9066109,9.51067798 18.3863162,9.64776287 17.25,10.5 M6.188,20.25 L6,21.75 L3,21.75 L2.25,15.75 L0.75,15.75 L0.75,13.5 C0.75,12.0796048 1.55250891,10.7811181 2.82294902,10.145898 C4.09338912,9.51067798 5.61368382,9.64776287 6.75,10.5 M19.5,8.25 C21.1568542,8.25 22.5,6.90685425 22.5,5.25 C22.5,3.59314575 21.1568542,2.25 19.5,2.25 C17.8431458,2.25 16.5,3.59314575 16.5,5.25 C16.5,6.90685425 17.8431458,8.25 19.5,8.25 Z M4.5,8.25 C6.15685425,8.25 7.5,6.90685425 7.5,5.25 C7.5,3.59314575 6.15685425,2.25 4.5,2.25 C2.84314575,2.25 1.5,3.59314575 1.5,5.25 C1.5,6.90685425 2.84314575,8.25 4.5,8.25 Z" id="Color-1" stroke="#203054" stroke-width="1.5" stroke-linecap="round" stroke-linejoin="round"></path>
        <path d="M12,12.75 C14.0710678,12.75 15.75,14.4289322 15.75,16.5 L15.75,17.25 L14.25,17.25 L13.5,21.75 L12,21.75 L10.5,21.75 L9.75,17.25 L8.25,17.25 L8.25,16.5 C8.25,14.4289322 9.92893219,12.75 12,12.75 Z M12,11.25 C10.7573593,11.25 9.75,10.2426407 9.75,9 C9.75,7.75735931 10.7573593,6.75 12,6.75 C13.2426407,6.75 14.25,7.75735931 14.25,9 C14.25,10.2426407 13.2426407,11.25 12,11.25 Z" id="Color-2" stroke="#46B0CA" stroke-width="1.5" fill-opacity="0.1" fill="#46B0CA" stroke-linecap="round" stroke-linejoin="round"></path>
    </g>
</svg>