<?xml version="1.0" encoding="UTF-8"?>
<svg width="24px" height="24px" viewBox="0 0 24 24" version="1.1" xmlns="http://www.w3.org/2000/svg" xmlns:xlink="http://www.w3.org/1999/xlink">
    <!-- Generator: Sketch 56.3 (81716) - https://sketch.com -->
    <title>Base / Icons / Detailed / Relationship - Child</title>
    <desc>Created with Sketch.</desc>
    <g id="Base-/-Icons-/-Detailed-/-Relationship---Child" stroke="none" stroke-width="1" fill="none" fill-rule="evenodd">
        <rect id="Footprint" x="0" y="0" width="24" height="24"></rect>
        <path d="M17.25,11.25 C18.6997475,11.25 19.875,10.0747475 19.875,8.625 C19.875,7.17525253 18.6997475,6 17.25,6 C15.8002525,6 14.625,7.17525253 14.625,8.625 C14.625,10.0747475 15.8002525,11.25 17.25,11.25 Z M20.25,18.75 L20.25,16.5 M18.75,22.5 C19.5784271,22.5 20.25,21.8284271 20.25,21 L20.25,18.75 C20.25,19.5784271 20.9215729,20.25 21.75,20.25 C22.5784271,20.25 23.25,19.5784271 23.25,18.75 L23.25,17.25 C23.25,14.7647186 21.2352814,12.75 18.75,12.75 L14.678,12.75 L11.9,10.533 C11.26877,10.0263103 10.3493804,10.1118264 9.82242898,10.7262431 C9.29547751,11.3406599 9.35104657,12.2623443 9.948,12.809 L14.253,16.332 L14.253,21 C14.253,21.8284271 14.9245729,22.5 15.753,22.5 C16.5814271,22.5 17.253,21.8284271 17.253,21 C17.2529983,21.827257 17.9227447,22.4983455 18.75,22.5 Z M17.25,21 L17.25,18.75" id="Color-1" stroke="#203054" stroke-width="1.5" stroke-linecap="round" stroke-linejoin="round"></path>
        <path d="M3.75,1.5 L8.25,15 L3.75,15 L3.75,21 C3.75,21.8284271 3.07842712,22.5 2.25,22.5 C1.42157288,22.5 0.75,21.8284271 0.75,21 L0.75,15" id="Color-2" stroke="#46B0CA" stroke-width="1.5" stroke-linecap="round" stroke-linejoin="round"></path>
    </g>
</svg>