<?xml version="1.0" encoding="UTF-8"?>
<svg width="24px" height="24px" viewBox="0 0 24 24" version="1.1" xmlns="http://www.w3.org/2000/svg" xmlns:xlink="http://www.w3.org/1999/xlink">
    <!-- Generator: Sketch 56.3 (81716) - https://sketch.com -->
    <title>Base / Icons / Detailed / Vitals</title>
    <desc>Created with Sketch.</desc>
    <g id="Base-/-Icons-/-Detailed-/-Vitals" stroke="none" stroke-width="1" fill="none" fill-rule="evenodd">
        <rect id="Footprint" x="0" y="0" width="24" height="24"></rect>
        <path d="M17.033,16.583 L12.541,21.269 C12.3997161,21.4165582 12.2042903,21.5000039 12,21.5000039 C11.7957097,21.5000039 11.6002839,21.4165582 11.459,21.269 L6.966,16.582 M1.471,10.587 C0.556942142,8.94905906 0.511277447,6.96526494 1.349,5.287 L1.349,5.287 C2.16462859,3.65621221 3.71440934,2.51686803 5.51425517,2.22485121 C7.31410099,1.9328344 9.14460729,2.52374236 10.434,3.813 L12,5.374 L13.566,3.808 C14.8553927,2.51874236 16.685899,1.9278344 18.4857448,2.21985121 C20.2855907,2.51186803 21.8353714,3.65121221 22.651,5.282 L22.651,5.282 C23.4887716,6.95996846 23.4442397,8.94332424 22.532,10.582" id="Color-1" stroke="#203054" stroke-width="1.5" stroke-linecap="round" stroke-linejoin="round"></path>
        <path d="M0.75,13.583 L7.268,13.583 C7.41012014,13.5830456 7.54012154,13.5029554 7.604,13.376 L9.327,9.929 C9.39484029,9.7885999 9.54229933,9.70464175 9.6976607,9.71795844 C9.85302208,9.73127513 9.98404233,9.83910293 10.027,9.989 L11.708,15.589 C11.755761,15.7366746 11.8893507,15.8398281 12.0443039,15.8486825 C12.1992571,15.857537 12.3437278,15.7702727 12.408,15.629 L13.978,11.965 C14.0325094,11.8388059 14.1515395,11.7524166 14.2884143,11.7397082 C14.4252891,11.7269999 14.5581893,11.7899985 14.635,11.904 L15.751,13.578 L23.251,13.578" id="Color-2" stroke="#46B0CA" stroke-width="1.5" stroke-linecap="round" stroke-linejoin="round"></path>
    </g>
</svg>